# Blender v2.79 (sub 0) OBJ File: ''
# www.blender.org
mtllib icaso.mtl
o Cube
v 0.527230 -0.850650 -0.000000
v -0.527230 0.850650 0.000000
v 0.527230 0.850650 0.000000
v -0.527230 -0.850650 0.000000
v -0.850650 -0.000000 -0.527230
v 0.000000 0.527230 -0.850650
v 0.850650 0.000000 0.527230
v -0.850650 -0.000000 0.527230
v 0.850650 0.000000 -0.527230
v 0.000000 -0.527230 0.850650
v 0.000000 0.527230 0.850650
v 0.000000 -0.527230 -0.850650
vn 0.0000 0.9347 0.3554
vn 0.0000 0.9347 -0.3554
vn 0.5774 0.5774 0.5774
vn 0.9347 0.3554 0.0000
vn 0.5774 0.5774 -0.5774
vn 0.3554 0.0000 -0.9347
vn 0.9347 -0.3554 0.0000
vn 0.5774 -0.5774 -0.5774
vn -0.5774 0.5774 -0.5774
vn -0.9347 0.3554 0.0000
vn -0.5774 0.5774 0.5774
vn -0.3554 0.0000 0.9347
vn 0.3554 0.0000 0.9347
vn -0.3554 0.0000 -0.9347
vn -0.9347 -0.3554 0.0000
vn -0.5774 -0.5774 0.5774
vn -0.5774 -0.5774 -0.5774
vn -0.0000 -0.9347 -0.3554
vn 0.0000 -0.9347 0.3554
vn 0.5774 -0.5774 0.5774
usemtl Material
s off
f 11//1 3//1 2//1
f 2//2 3//2 6//2
f 3//3 11//3 7//3
f 7//4 9//4 3//4
f 6//5 3//5 9//5
f 9//6 12//6 6//6
f 1//7 9//7 7//7
f 9//8 1//8 12//8
f 6//9 5//9 2//9
f 5//10 8//10 2//10
f 2//11 8//11 11//11
f 10//12 11//12 8//12
f 11//13 10//13 7//13
f 6//14 12//14 5//14
f 4//15 8//15 5//15
f 10//16 8//16 4//16
f 5//17 12//17 4//17
f 1//18 4//18 12//18
f 4//19 1//19 10//19
f 1//20 7//20 10//20
